M48
METRIC,LZ,000.000
;FILE_FORMAT=3:3
;TYPE=PLATED
;Layer: PTH_Through
;EasyEDA v6.5.34, 2023-10-05 18:46:17
;95b8fe5a1411474d91de7b1b8a81d935,93498b55e67a4190998fc8b5c4fdbdff,10
;Gerber Generator version 0.2
;Holesize 1 = 0.501 mm
T01C0.501
;Holesize 2 = 0.800 mm
T02C0.800
;Holesize 3 = 0.901 mm
T03C0.901
;Holesize 4 = 0.915 mm
T04C0.915
;Holesize 5 = 1.000 mm
T05C1.000
;Holesize 6 = 1.101 mm
T06C1.101
;Holesize 7 = 1.200 mm
T07C1.200
%
G05
G90
T01
X054856Y062329
X057404Y062230
T02
X044831Y072644
X057530Y072771
T03
X046609Y069596
X044069Y054356
X038988Y054356
X033908Y054356
X028828Y054356
X023748Y054356
X018668Y054356
X013588Y054356
X011049Y069596
X016130Y069596
X021210Y069596
X026290Y069596
X031370Y069596
X036450Y069596
X041529Y069596
X044069Y069596
X038989Y069596
X033909Y069596
X028829Y069596
X023749Y069596
X018669Y069596
X013589Y069596
X011049Y054356
X016129Y054356
X021209Y054356
X026289Y054356
X031369Y054356
X036449Y054356
X041529Y054356
X046609Y054356
T04
X062484Y063373
X062484Y060833
X025992Y083693
X036492Y083693
X025992Y081026
X036492Y081026
X025992Y078359
X036492Y078359
T05
X056769Y056642
X059309Y056642
T06
X012828Y085411
X012828Y082911
X012828Y080411
X012828Y077911
X020448Y085411
X020448Y082911
X020448Y080411
X020448Y077911
X049852Y076708
X047352Y076708
X044852Y076708
X042352Y076708
X049852Y084328
X047352Y084328
X044852Y084328
X042352Y084328
X057445Y076581
X059945Y076581
X062445Y076581
X057445Y084328
X059945Y084328
X062445Y084328
T07
X062484Y067691
X059944Y067691
X057404Y067691
M30
