G04 Layer: TopSilkscreenLayer*
G04 EasyEDA v6.5.34, 2023-10-05 18:46:17*
G04 95b8fe5a1411474d91de7b1b8a81d935,93498b55e67a4190998fc8b5c4fdbdff,10*
G04 Gerber Generator version 0.2*
G04 Scale: 100 percent, Rotated: No, Reflected: No *
G04 Dimensions in millimeters *
G04 leading zeros omitted , absolute positions ,4 integer and 5 decimal *
%FSLAX45Y45*%
%MOMM*%

%ADD10C,0.1524*%
%ADD11C,0.1500*%
%ADD12C,0.2540*%
%ADD13C,0.1520*%
%ADD14C,0.4000*%
%ADD15C,0.0108*%

%LPD*%
D10*
X5675122Y5968492D02*
G01*
X5680456Y5958078D01*
X5690870Y5947663D01*
X5701029Y5942584D01*
X5721858Y5942584D01*
X5732272Y5947663D01*
X5742686Y5958078D01*
X5748020Y5968492D01*
X5753100Y5984239D01*
X5753100Y6010147D01*
X5748020Y6025642D01*
X5742686Y6036055D01*
X5732272Y6046470D01*
X5721858Y6051550D01*
X5701029Y6051550D01*
X5690870Y6046470D01*
X5680456Y6036055D01*
X5675122Y6025642D01*
X5635752Y5968492D02*
G01*
X5635752Y5963412D01*
X5630418Y5952997D01*
X5625338Y5947663D01*
X5614924Y5942584D01*
X5594095Y5942584D01*
X5583681Y5947663D01*
X5578602Y5952997D01*
X5573268Y5963412D01*
X5573268Y5973826D01*
X5578602Y5984239D01*
X5589015Y5999734D01*
X5640831Y6051550D01*
X5568188Y6051550D01*
X6617208Y6132321D02*
G01*
X6627622Y6137655D01*
X6638036Y6148070D01*
X6643115Y6158229D01*
X6643115Y6179057D01*
X6638036Y6189471D01*
X6627622Y6199886D01*
X6617208Y6205220D01*
X6601459Y6210300D01*
X6575552Y6210300D01*
X6560058Y6205220D01*
X6549643Y6199886D01*
X6539229Y6189471D01*
X6534150Y6179057D01*
X6534150Y6158229D01*
X6539229Y6148070D01*
X6549643Y6137655D01*
X6560058Y6132321D01*
X6622288Y6098031D02*
G01*
X6627622Y6087618D01*
X6643115Y6072123D01*
X6534150Y6072123D01*
X5969000Y7202220D02*
G01*
X5969000Y7124242D01*
X5974079Y7108748D01*
X5984493Y7098334D01*
X6000241Y7093254D01*
X6010656Y7093254D01*
X6026150Y7098334D01*
X6036563Y7108748D01*
X6041643Y7124242D01*
X6041643Y7202220D01*
X6081268Y7176312D02*
G01*
X6081268Y7181392D01*
X6086347Y7191806D01*
X6091681Y7197140D01*
X6102095Y7202220D01*
X6122670Y7202220D01*
X6133084Y7197140D01*
X6138418Y7191806D01*
X6143497Y7181392D01*
X6143497Y7170978D01*
X6138418Y7160564D01*
X6128004Y7145070D01*
X6075934Y7093254D01*
X6148831Y7093254D01*
X1040384Y7823200D02*
G01*
X1149350Y7823200D01*
X1149350Y7823200D02*
G01*
X1149350Y7885429D01*
X1040384Y7919720D02*
G01*
X1149350Y7919720D01*
X1040384Y7919720D02*
G01*
X1040384Y7987284D01*
X1092200Y7919720D02*
G01*
X1092200Y7961376D01*
X1149350Y7919720D02*
G01*
X1149350Y7987284D01*
X1040384Y8021573D02*
G01*
X1149350Y8021573D01*
X1040384Y8021573D02*
G01*
X1040384Y8058150D01*
X1045463Y8073644D01*
X1055878Y8084058D01*
X1066292Y8089137D01*
X1082039Y8094471D01*
X1107947Y8094471D01*
X1123442Y8089137D01*
X1133855Y8084058D01*
X1144270Y8073644D01*
X1149350Y8058150D01*
X1149350Y8021573D01*
X1024889Y8139176D02*
G01*
X1055878Y8139176D01*
X1055878Y8235695D02*
G01*
X1045463Y8225281D01*
X1040384Y8209787D01*
X1040384Y8188960D01*
X1045463Y8173465D01*
X1055878Y8163052D01*
X1066292Y8163052D01*
X1076705Y8168131D01*
X1082039Y8173465D01*
X1087120Y8183879D01*
X1097534Y8214868D01*
X1102613Y8225281D01*
X1107947Y8230615D01*
X1118362Y8235695D01*
X1133855Y8235695D01*
X1144270Y8225281D01*
X1149350Y8209787D01*
X1149350Y8188960D01*
X1144270Y8173465D01*
X1133855Y8163052D01*
X1102613Y8269986D02*
G01*
X1102613Y8363458D01*
X1040384Y8428989D02*
G01*
X1045463Y8413495D01*
X1061212Y8403081D01*
X1087120Y8397747D01*
X1102613Y8397747D01*
X1128776Y8403081D01*
X1144270Y8413495D01*
X1149350Y8428989D01*
X1149350Y8439404D01*
X1144270Y8454897D01*
X1128776Y8465312D01*
X1102613Y8470645D01*
X1087120Y8470645D01*
X1061212Y8465312D01*
X1045463Y8454897D01*
X1040384Y8439404D01*
X1040384Y8428989D01*
X1061212Y8504936D02*
G01*
X1055878Y8515350D01*
X1040384Y8530844D01*
X1149350Y8530844D01*
X1815084Y7810500D02*
G01*
X1924050Y7810500D01*
X1924050Y7810500D02*
G01*
X1924050Y7872729D01*
X1815084Y7907020D02*
G01*
X1924050Y7907020D01*
X1815084Y7907020D02*
G01*
X1815084Y7974584D01*
X1866900Y7907020D02*
G01*
X1866900Y7948676D01*
X1924050Y7907020D02*
G01*
X1924050Y7974584D01*
X1815084Y8008873D02*
G01*
X1924050Y8008873D01*
X1815084Y8008873D02*
G01*
X1815084Y8045450D01*
X1820163Y8060944D01*
X1830578Y8071358D01*
X1840992Y8076437D01*
X1856739Y8081771D01*
X1882647Y8081771D01*
X1898142Y8076437D01*
X1908555Y8071358D01*
X1918970Y8060944D01*
X1924050Y8045450D01*
X1924050Y8008873D01*
X1799589Y8126476D02*
G01*
X1830578Y8126476D01*
X1830578Y8222995D02*
G01*
X1820163Y8212581D01*
X1815084Y8197087D01*
X1815084Y8176260D01*
X1820163Y8160765D01*
X1830578Y8150352D01*
X1840992Y8150352D01*
X1851405Y8155431D01*
X1856739Y8160765D01*
X1861820Y8171179D01*
X1872234Y8202168D01*
X1877313Y8212581D01*
X1882647Y8217915D01*
X1893062Y8222995D01*
X1908555Y8222995D01*
X1918970Y8212581D01*
X1924050Y8197087D01*
X1924050Y8176260D01*
X1918970Y8160765D01*
X1908555Y8150352D01*
X1877313Y8257286D02*
G01*
X1877313Y8350758D01*
X1815084Y8416289D02*
G01*
X1820163Y8400795D01*
X1835912Y8390381D01*
X1861820Y8385047D01*
X1877313Y8385047D01*
X1903476Y8390381D01*
X1918970Y8400795D01*
X1924050Y8416289D01*
X1924050Y8426704D01*
X1918970Y8442197D01*
X1903476Y8452612D01*
X1877313Y8457945D01*
X1861820Y8457945D01*
X1835912Y8452612D01*
X1820163Y8442197D01*
X1815084Y8426704D01*
X1815084Y8416289D01*
X1840992Y8497315D02*
G01*
X1835912Y8497315D01*
X1825497Y8502650D01*
X1820163Y8507729D01*
X1815084Y8518144D01*
X1815084Y8538971D01*
X1820163Y8549386D01*
X1825497Y8554465D01*
X1835912Y8559800D01*
X1846326Y8559800D01*
X1856739Y8554465D01*
X1872234Y8544052D01*
X1924050Y8492236D01*
X1924050Y8564879D01*
X4212843Y7884921D02*
G01*
X4202429Y7895336D01*
X4186936Y7900415D01*
X4166108Y7900415D01*
X4150613Y7895336D01*
X4140200Y7884921D01*
X4140200Y7874508D01*
X4145279Y7864094D01*
X4150613Y7858760D01*
X4161027Y7853679D01*
X4192270Y7843265D01*
X4202429Y7838186D01*
X4207763Y7832852D01*
X4212843Y7822437D01*
X4212843Y7806944D01*
X4202429Y7796529D01*
X4186936Y7791450D01*
X4166108Y7791450D01*
X4150613Y7796529D01*
X4140200Y7806944D01*
X4247134Y7900415D02*
G01*
X4247134Y7791450D01*
X4247134Y7900415D02*
G01*
X4314697Y7900415D01*
X4247134Y7848600D02*
G01*
X4288790Y7848600D01*
X4247134Y7791450D02*
G01*
X4314697Y7791450D01*
X4348988Y7900415D02*
G01*
X4348988Y7791450D01*
X4348988Y7900415D02*
G01*
X4421886Y7791450D01*
X4421886Y7900415D02*
G01*
X4421886Y7791450D01*
X4528820Y7884921D02*
G01*
X4518406Y7895336D01*
X4502911Y7900415D01*
X4482084Y7900415D01*
X4466590Y7895336D01*
X4456175Y7884921D01*
X4456175Y7874508D01*
X4461256Y7864094D01*
X4466590Y7858760D01*
X4476750Y7853679D01*
X4507991Y7843265D01*
X4518406Y7838186D01*
X4523740Y7832852D01*
X4528820Y7822437D01*
X4528820Y7806944D01*
X4518406Y7796529D01*
X4502911Y7791450D01*
X4482084Y7791450D01*
X4466590Y7796529D01*
X4456175Y7806944D01*
X4594352Y7900415D02*
G01*
X4583938Y7895336D01*
X4573524Y7884921D01*
X4568190Y7874508D01*
X4563109Y7858760D01*
X4563109Y7832852D01*
X4568190Y7817358D01*
X4573524Y7806944D01*
X4583938Y7796529D01*
X4594352Y7791450D01*
X4615179Y7791450D01*
X4625340Y7796529D01*
X4635754Y7806944D01*
X4641088Y7817358D01*
X4646168Y7832852D01*
X4646168Y7858760D01*
X4641088Y7874508D01*
X4635754Y7884921D01*
X4625340Y7895336D01*
X4615179Y7900415D01*
X4594352Y7900415D01*
X4680458Y7900415D02*
G01*
X4680458Y7791450D01*
X4680458Y7900415D02*
G01*
X4727193Y7900415D01*
X4742941Y7895336D01*
X4748022Y7890002D01*
X4753356Y7879587D01*
X4753356Y7869173D01*
X4748022Y7858760D01*
X4742941Y7853679D01*
X4727193Y7848600D01*
X4680458Y7848600D01*
X4716779Y7848600D02*
G01*
X4753356Y7791450D01*
X4787645Y7838186D02*
G01*
X4881118Y7838186D01*
X4946650Y7900415D02*
G01*
X4930902Y7895336D01*
X4920488Y7879587D01*
X4915408Y7853679D01*
X4915408Y7838186D01*
X4920488Y7812023D01*
X4930902Y7796529D01*
X4946650Y7791450D01*
X4956809Y7791450D01*
X4972558Y7796529D01*
X4982972Y7812023D01*
X4988052Y7838186D01*
X4988052Y7853679D01*
X4982972Y7879587D01*
X4972558Y7895336D01*
X4956809Y7900415D01*
X4946650Y7900415D01*
X5022341Y7879587D02*
G01*
X5032756Y7884921D01*
X5048250Y7900415D01*
X5048250Y7791450D01*
X4225543Y8646921D02*
G01*
X4215129Y8657336D01*
X4199636Y8662415D01*
X4178808Y8662415D01*
X4163313Y8657336D01*
X4152900Y8646921D01*
X4152900Y8636508D01*
X4157979Y8626094D01*
X4163313Y8620760D01*
X4173727Y8615679D01*
X4204970Y8605265D01*
X4215129Y8600186D01*
X4220463Y8594852D01*
X4225543Y8584437D01*
X4225543Y8568944D01*
X4215129Y8558529D01*
X4199636Y8553450D01*
X4178808Y8553450D01*
X4163313Y8558529D01*
X4152900Y8568944D01*
X4259834Y8662415D02*
G01*
X4259834Y8553450D01*
X4259834Y8662415D02*
G01*
X4327397Y8662415D01*
X4259834Y8610600D02*
G01*
X4301490Y8610600D01*
X4259834Y8553450D02*
G01*
X4327397Y8553450D01*
X4361688Y8662415D02*
G01*
X4361688Y8553450D01*
X4361688Y8662415D02*
G01*
X4434586Y8553450D01*
X4434586Y8662415D02*
G01*
X4434586Y8553450D01*
X4541520Y8646921D02*
G01*
X4531106Y8657336D01*
X4515611Y8662415D01*
X4494784Y8662415D01*
X4479290Y8657336D01*
X4468875Y8646921D01*
X4468875Y8636508D01*
X4473956Y8626094D01*
X4479290Y8620760D01*
X4489450Y8615679D01*
X4520691Y8605265D01*
X4531106Y8600186D01*
X4536440Y8594852D01*
X4541520Y8584437D01*
X4541520Y8568944D01*
X4531106Y8558529D01*
X4515611Y8553450D01*
X4494784Y8553450D01*
X4479290Y8558529D01*
X4468875Y8568944D01*
X4607052Y8662415D02*
G01*
X4596638Y8657336D01*
X4586224Y8646921D01*
X4580890Y8636508D01*
X4575809Y8620760D01*
X4575809Y8594852D01*
X4580890Y8579358D01*
X4586224Y8568944D01*
X4596638Y8558529D01*
X4607052Y8553450D01*
X4627879Y8553450D01*
X4638040Y8558529D01*
X4648454Y8568944D01*
X4653788Y8579358D01*
X4658868Y8594852D01*
X4658868Y8620760D01*
X4653788Y8636508D01*
X4648454Y8646921D01*
X4638040Y8657336D01*
X4627879Y8662415D01*
X4607052Y8662415D01*
X4693158Y8662415D02*
G01*
X4693158Y8553450D01*
X4693158Y8662415D02*
G01*
X4739893Y8662415D01*
X4755641Y8657336D01*
X4760722Y8652002D01*
X4766056Y8641587D01*
X4766056Y8631174D01*
X4760722Y8620760D01*
X4755641Y8615679D01*
X4739893Y8610600D01*
X4693158Y8610600D01*
X4729479Y8610600D02*
G01*
X4766056Y8553450D01*
X4800345Y8600186D02*
G01*
X4893818Y8600186D01*
X4959350Y8662415D02*
G01*
X4943602Y8657336D01*
X4933188Y8641587D01*
X4928108Y8615679D01*
X4928108Y8600186D01*
X4933188Y8574024D01*
X4943602Y8558529D01*
X4959350Y8553450D01*
X4969509Y8553450D01*
X4985258Y8558529D01*
X4995672Y8574024D01*
X5000752Y8600186D01*
X5000752Y8615679D01*
X4995672Y8641587D01*
X4985258Y8657336D01*
X4969509Y8662415D01*
X4959350Y8662415D01*
X5040375Y8636508D02*
G01*
X5040375Y8641587D01*
X5045456Y8652002D01*
X5050790Y8657336D01*
X5060950Y8662415D01*
X5081777Y8662415D01*
X5092191Y8657336D01*
X5097525Y8652002D01*
X5102606Y8641587D01*
X5102606Y8631174D01*
X5097525Y8620760D01*
X5087111Y8605265D01*
X5035041Y8553450D01*
X5107940Y8553450D01*
X5660694Y7884921D02*
G01*
X5650280Y7895336D01*
X5634786Y7900415D01*
X5613958Y7900415D01*
X5598464Y7895336D01*
X5588050Y7884921D01*
X5588050Y7874508D01*
X5593130Y7864094D01*
X5598464Y7858760D01*
X5608878Y7853679D01*
X5639866Y7843265D01*
X5650280Y7838186D01*
X5655614Y7832852D01*
X5660694Y7822437D01*
X5660694Y7806944D01*
X5650280Y7796529D01*
X5634786Y7791450D01*
X5613958Y7791450D01*
X5598464Y7796529D01*
X5588050Y7806944D01*
X5694984Y7900415D02*
G01*
X5694984Y7791450D01*
X5694984Y7900415D02*
G01*
X5762548Y7900415D01*
X5694984Y7848600D02*
G01*
X5736640Y7848600D01*
X5694984Y7791450D02*
G01*
X5762548Y7791450D01*
X5796838Y7900415D02*
G01*
X5796838Y7791450D01*
X5796838Y7900415D02*
G01*
X5843574Y7900415D01*
X5859322Y7895336D01*
X5864402Y7890002D01*
X5869482Y7879587D01*
X5869482Y7869173D01*
X5864402Y7858760D01*
X5859322Y7853679D01*
X5843574Y7848600D01*
X5796838Y7848600D01*
X5833160Y7848600D02*
G01*
X5869482Y7791450D01*
X5903772Y7900415D02*
G01*
X5945428Y7791450D01*
X5987084Y7900415D02*
G01*
X5945428Y7791450D01*
X6052362Y7900415D02*
G01*
X6042202Y7895336D01*
X6031788Y7884921D01*
X6026454Y7874508D01*
X6021374Y7858760D01*
X6021374Y7832852D01*
X6026454Y7817358D01*
X6031788Y7806944D01*
X6042202Y7796529D01*
X6052362Y7791450D01*
X6073190Y7791450D01*
X6083604Y7796529D01*
X6094018Y7806944D01*
X6099352Y7817358D01*
X6104432Y7832852D01*
X6104432Y7858760D01*
X6099352Y7874508D01*
X6094018Y7884921D01*
X6083604Y7895336D01*
X6073190Y7900415D01*
X6052362Y7900415D01*
X6138722Y7838186D02*
G01*
X6232194Y7838186D01*
X6297726Y7900415D02*
G01*
X6282232Y7895336D01*
X6271818Y7879587D01*
X6266484Y7853679D01*
X6266484Y7838186D01*
X6271818Y7812023D01*
X6282232Y7796529D01*
X6297726Y7791450D01*
X6308140Y7791450D01*
X6323634Y7796529D01*
X6334048Y7812023D01*
X6339382Y7838186D01*
X6339382Y7853679D01*
X6334048Y7879587D01*
X6323634Y7895336D01*
X6308140Y7900415D01*
X6297726Y7900415D01*
X6373672Y7879587D02*
G01*
X6383832Y7884921D01*
X6399580Y7900415D01*
X6399580Y7791450D01*
X5647994Y8659621D02*
G01*
X5637580Y8670036D01*
X5622086Y8675115D01*
X5601258Y8675115D01*
X5585764Y8670036D01*
X5575350Y8659621D01*
X5575350Y8649208D01*
X5580430Y8638794D01*
X5585764Y8633460D01*
X5596178Y8628379D01*
X5627166Y8617965D01*
X5637580Y8612886D01*
X5642914Y8607552D01*
X5647994Y8597137D01*
X5647994Y8581644D01*
X5637580Y8571229D01*
X5622086Y8566150D01*
X5601258Y8566150D01*
X5585764Y8571229D01*
X5575350Y8581644D01*
X5682284Y8675115D02*
G01*
X5682284Y8566150D01*
X5682284Y8675115D02*
G01*
X5749848Y8675115D01*
X5682284Y8623300D02*
G01*
X5723940Y8623300D01*
X5682284Y8566150D02*
G01*
X5749848Y8566150D01*
X5784138Y8675115D02*
G01*
X5784138Y8566150D01*
X5784138Y8675115D02*
G01*
X5830874Y8675115D01*
X5846622Y8670036D01*
X5851702Y8664702D01*
X5856782Y8654287D01*
X5856782Y8643874D01*
X5851702Y8633460D01*
X5846622Y8628379D01*
X5830874Y8623300D01*
X5784138Y8623300D01*
X5820460Y8623300D02*
G01*
X5856782Y8566150D01*
X5891072Y8675115D02*
G01*
X5932728Y8566150D01*
X5974384Y8675115D02*
G01*
X5932728Y8566150D01*
X6039662Y8675115D02*
G01*
X6029502Y8670036D01*
X6019088Y8659621D01*
X6013754Y8649208D01*
X6008674Y8633460D01*
X6008674Y8607552D01*
X6013754Y8592058D01*
X6019088Y8581644D01*
X6029502Y8571229D01*
X6039662Y8566150D01*
X6060490Y8566150D01*
X6070904Y8571229D01*
X6081318Y8581644D01*
X6086652Y8592058D01*
X6091732Y8607552D01*
X6091732Y8633460D01*
X6086652Y8649208D01*
X6081318Y8659621D01*
X6070904Y8670036D01*
X6060490Y8675115D01*
X6039662Y8675115D01*
X6126022Y8612886D02*
G01*
X6219494Y8612886D01*
X6285026Y8675115D02*
G01*
X6269532Y8670036D01*
X6259118Y8654287D01*
X6253784Y8628379D01*
X6253784Y8612886D01*
X6259118Y8586724D01*
X6269532Y8571229D01*
X6285026Y8566150D01*
X6295440Y8566150D01*
X6310934Y8571229D01*
X6321348Y8586724D01*
X6326682Y8612886D01*
X6326682Y8628379D01*
X6321348Y8654287D01*
X6310934Y8670036D01*
X6295440Y8675115D01*
X6285026Y8675115D01*
X6366052Y8649208D02*
G01*
X6366052Y8654287D01*
X6371132Y8664702D01*
X6376466Y8670036D01*
X6386880Y8675115D01*
X6407708Y8675115D01*
X6418122Y8670036D01*
X6423202Y8664702D01*
X6428282Y8654287D01*
X6428282Y8643874D01*
X6423202Y8633460D01*
X6412788Y8617965D01*
X6360972Y8566150D01*
X6433616Y8566150D01*
X5992624Y5269999D02*
G01*
X5997958Y5259585D01*
X6008372Y5249171D01*
X6018532Y5244091D01*
X6039360Y5244091D01*
X6049774Y5249171D01*
X6060188Y5259585D01*
X6065522Y5269999D01*
X6070602Y5285747D01*
X6070602Y5311655D01*
X6065522Y5327149D01*
X6060188Y5337563D01*
X6049774Y5347977D01*
X6039360Y5353057D01*
X6018532Y5353057D01*
X6008372Y5347977D01*
X5997958Y5337563D01*
X5992624Y5327149D01*
X5958334Y5244091D02*
G01*
X5958334Y5353057D01*
X5958334Y5244091D02*
G01*
X5885690Y5353057D01*
X5885690Y5244091D02*
G01*
X5885690Y5353057D01*
X5840986Y5244091D02*
G01*
X5783836Y5244091D01*
X5815078Y5285747D01*
X5799330Y5285747D01*
X5788916Y5290827D01*
X5783836Y5295907D01*
X5778502Y5311655D01*
X5778502Y5322069D01*
X5783836Y5337563D01*
X5794250Y5347977D01*
X5809744Y5353057D01*
X5825492Y5353057D01*
X5840986Y5347977D01*
X5846066Y5342897D01*
X5851400Y5332483D01*
X3060700Y8433815D02*
G01*
X3060700Y8324850D01*
X3060700Y8433815D02*
G01*
X3107436Y8433815D01*
X3122929Y8428736D01*
X3128263Y8423402D01*
X3133343Y8412987D01*
X3133343Y8402574D01*
X3128263Y8392160D01*
X3122929Y8387079D01*
X3107436Y8382000D01*
X3060700Y8382000D01*
X3097022Y8382000D02*
G01*
X3133343Y8324850D01*
X3167634Y8412987D02*
G01*
X3178047Y8418321D01*
X3193795Y8433815D01*
X3193795Y8324850D01*
X3048000Y8154415D02*
G01*
X3048000Y8045450D01*
X3048000Y8154415D02*
G01*
X3094736Y8154415D01*
X3110229Y8149336D01*
X3115563Y8144002D01*
X3120643Y8133587D01*
X3120643Y8123173D01*
X3115563Y8112760D01*
X3110229Y8107679D01*
X3094736Y8102600D01*
X3048000Y8102600D01*
X3084322Y8102600D02*
G01*
X3120643Y8045450D01*
X3160268Y8128508D02*
G01*
X3160268Y8133587D01*
X3165347Y8144002D01*
X3170681Y8149336D01*
X3181095Y8154415D01*
X3201670Y8154415D01*
X3212084Y8149336D01*
X3217418Y8144002D01*
X3222497Y8133587D01*
X3222497Y8123173D01*
X3217418Y8112760D01*
X3207004Y8097265D01*
X3154934Y8045450D01*
X3227831Y8045450D01*
X3035300Y7887715D02*
G01*
X3035300Y7778750D01*
X3035300Y7887715D02*
G01*
X3082036Y7887715D01*
X3097529Y7882636D01*
X3102863Y7877302D01*
X3107943Y7866887D01*
X3107943Y7856473D01*
X3102863Y7846060D01*
X3097529Y7840979D01*
X3082036Y7835900D01*
X3035300Y7835900D01*
X3071622Y7835900D02*
G01*
X3107943Y7778750D01*
X3152647Y7887715D02*
G01*
X3209797Y7887715D01*
X3178809Y7846060D01*
X3194304Y7846060D01*
X3204718Y7840979D01*
X3209797Y7835900D01*
X3215131Y7820152D01*
X3215131Y7809737D01*
X3209797Y7794244D01*
X3199384Y7783829D01*
X3183890Y7778750D01*
X3168395Y7778750D01*
X3152647Y7783829D01*
X3147568Y7788910D01*
X3142234Y7799323D01*
X812800Y7265415D02*
G01*
X812800Y7187437D01*
X817879Y7171944D01*
X828294Y7161529D01*
X844042Y7156450D01*
X854455Y7156450D01*
X869950Y7161529D01*
X880363Y7171944D01*
X885444Y7187437D01*
X885444Y7265415D01*
X919734Y7244587D02*
G01*
X930147Y7249921D01*
X945895Y7265415D01*
X945895Y7156450D01*
D11*
X1058862Y5598594D02*
G01*
X1154366Y5598594D01*
X1058862Y5598594D02*
G01*
X1058862Y5630344D01*
X1063434Y5644060D01*
X1072324Y5653204D01*
X1081468Y5657776D01*
X1095184Y5662348D01*
X1117790Y5662348D01*
X1131506Y5657776D01*
X1140650Y5653204D01*
X1149794Y5644060D01*
X1154366Y5630344D01*
X1154366Y5598594D01*
X1076896Y5692320D02*
G01*
X1072324Y5701210D01*
X1058862Y5714926D01*
X1154366Y5714926D01*
X1058862Y5754042D02*
G01*
X1058862Y5804080D01*
X1095184Y5776902D01*
X1095184Y5790364D01*
X1099756Y5799508D01*
X1104328Y5804080D01*
X1117790Y5808652D01*
X1126934Y5808652D01*
X1140650Y5804080D01*
X1149794Y5794936D01*
X1154366Y5781220D01*
X1154366Y5767758D01*
X1149794Y5754042D01*
X1145222Y5749470D01*
X1136078Y5744898D01*
X1312857Y5607733D02*
G01*
X1312857Y5657771D01*
X1349179Y5630339D01*
X1349179Y5644055D01*
X1353751Y5653199D01*
X1358323Y5657771D01*
X1371785Y5662343D01*
X1380929Y5662343D01*
X1394645Y5657771D01*
X1403789Y5648627D01*
X1408361Y5634911D01*
X1408361Y5621195D01*
X1403789Y5607733D01*
X1399217Y5603161D01*
X1390073Y5598589D01*
X1312857Y5692315D02*
G01*
X1408361Y5728637D01*
X1312857Y5764959D02*
G01*
X1408361Y5728637D01*
X1312857Y5804075D02*
G01*
X1312857Y5854113D01*
X1349179Y5826681D01*
X1349179Y5840397D01*
X1353751Y5849541D01*
X1358323Y5854113D01*
X1371785Y5858685D01*
X1380929Y5858685D01*
X1394645Y5854113D01*
X1403789Y5844969D01*
X1408361Y5831253D01*
X1408361Y5817791D01*
X1403789Y5804075D01*
X1399217Y5799503D01*
X1390073Y5794931D01*
X1566857Y5598589D02*
G01*
X1662361Y5598589D01*
X1566857Y5598589D02*
G01*
X1566857Y5639483D01*
X1571429Y5653199D01*
X1576001Y5657771D01*
X1584891Y5662343D01*
X1594035Y5662343D01*
X1603179Y5657771D01*
X1607751Y5653199D01*
X1612323Y5639483D01*
X1612323Y5598589D01*
X1612323Y5630339D02*
G01*
X1662361Y5662343D01*
X1566857Y5692315D02*
G01*
X1662361Y5692315D01*
X1566857Y5692315D02*
G01*
X1566857Y5751243D01*
X1612323Y5692315D02*
G01*
X1612323Y5728637D01*
X1662361Y5692315D02*
G01*
X1662361Y5751243D01*
X1566857Y5781215D02*
G01*
X1662361Y5781215D01*
X1566857Y5781215D02*
G01*
X1566857Y5840397D01*
X1612323Y5781215D02*
G01*
X1612323Y5817791D01*
X1820859Y5634913D02*
G01*
X1916363Y5598591D01*
X1820859Y5634913D02*
G01*
X1916363Y5671235D01*
X1884359Y5612307D02*
G01*
X1884359Y5657773D01*
X1820859Y5728639D02*
G01*
X1825431Y5714923D01*
X1838893Y5705779D01*
X1861753Y5701207D01*
X1875215Y5701207D01*
X1898075Y5705779D01*
X1911791Y5714923D01*
X1916363Y5728639D01*
X1916363Y5737783D01*
X1911791Y5751245D01*
X1898075Y5760389D01*
X1875215Y5764961D01*
X1861753Y5764961D01*
X1838893Y5760389D01*
X1825431Y5751245D01*
X1820859Y5737783D01*
X1820859Y5728639D01*
X2074857Y5634911D02*
G01*
X2170361Y5598589D01*
X2074857Y5634911D02*
G01*
X2170361Y5671233D01*
X2138357Y5612305D02*
G01*
X2138357Y5657771D01*
X2092891Y5701205D02*
G01*
X2088319Y5710349D01*
X2074857Y5724065D01*
X2170361Y5724065D01*
X2328859Y5634913D02*
G01*
X2424363Y5598591D01*
X2328859Y5634913D02*
G01*
X2424363Y5671235D01*
X2392359Y5612307D02*
G01*
X2392359Y5657773D01*
X2351465Y5705779D02*
G01*
X2346893Y5705779D01*
X2338003Y5710351D01*
X2333431Y5714923D01*
X2328859Y5724067D01*
X2328859Y5742101D01*
X2333431Y5751245D01*
X2338003Y5755817D01*
X2346893Y5760389D01*
X2356037Y5760389D01*
X2365181Y5755817D01*
X2378897Y5746673D01*
X2424363Y5701207D01*
X2424363Y5764961D01*
X2582859Y5634913D02*
G01*
X2678363Y5598591D01*
X2582859Y5634913D02*
G01*
X2678363Y5671235D01*
X2646359Y5612307D02*
G01*
X2646359Y5657773D01*
X2582859Y5710351D02*
G01*
X2582859Y5760389D01*
X2619181Y5733211D01*
X2619181Y5746673D01*
X2623753Y5755817D01*
X2628325Y5760389D01*
X2641787Y5764961D01*
X2650931Y5764961D01*
X2664647Y5760389D01*
X2673791Y5751245D01*
X2678363Y5737783D01*
X2678363Y5724067D01*
X2673791Y5710351D01*
X2669219Y5705779D01*
X2660075Y5701207D01*
X2836862Y5634916D02*
G01*
X2932366Y5598594D01*
X2836862Y5634916D02*
G01*
X2932366Y5671238D01*
X2900362Y5612310D02*
G01*
X2900362Y5657776D01*
X2836862Y5746676D02*
G01*
X2900362Y5701210D01*
X2900362Y5769536D01*
X2836862Y5746676D02*
G01*
X2932366Y5746676D01*
X3090859Y5634913D02*
G01*
X3186363Y5598591D01*
X3090859Y5634913D02*
G01*
X3186363Y5671235D01*
X3154359Y5612307D02*
G01*
X3154359Y5657773D01*
X3090859Y5755817D02*
G01*
X3090859Y5710351D01*
X3131753Y5705779D01*
X3127181Y5710351D01*
X3122609Y5724067D01*
X3122609Y5737783D01*
X3127181Y5751245D01*
X3136325Y5760389D01*
X3149787Y5764961D01*
X3158931Y5764961D01*
X3172647Y5760389D01*
X3181791Y5751245D01*
X3186363Y5737783D01*
X3186363Y5724067D01*
X3181791Y5710351D01*
X3177219Y5705779D01*
X3168075Y5701207D01*
X3344862Y5634916D02*
G01*
X3440366Y5598594D01*
X3344862Y5634916D02*
G01*
X3440366Y5671238D01*
X3408362Y5612310D02*
G01*
X3408362Y5657776D01*
X3358324Y5755820D02*
G01*
X3349434Y5751248D01*
X3344862Y5737786D01*
X3344862Y5728642D01*
X3349434Y5714926D01*
X3362896Y5705782D01*
X3385756Y5701210D01*
X3408362Y5701210D01*
X3426650Y5705782D01*
X3435794Y5714926D01*
X3440366Y5728642D01*
X3440366Y5733214D01*
X3435794Y5746676D01*
X3426650Y5755820D01*
X3412934Y5760392D01*
X3408362Y5760392D01*
X3394900Y5755820D01*
X3385756Y5746676D01*
X3381184Y5733214D01*
X3381184Y5728642D01*
X3385756Y5714926D01*
X3394900Y5705782D01*
X3408362Y5701210D01*
X3598859Y5634913D02*
G01*
X3694363Y5598591D01*
X3598859Y5634913D02*
G01*
X3694363Y5671235D01*
X3662359Y5612307D02*
G01*
X3662359Y5657773D01*
X3598859Y5764961D02*
G01*
X3694363Y5719495D01*
X3598859Y5701207D02*
G01*
X3598859Y5764961D01*
X3852859Y5653201D02*
G01*
X3852859Y5607735D01*
X3893753Y5603163D01*
X3889181Y5607735D01*
X3884609Y5621197D01*
X3884609Y5634913D01*
X3889181Y5648629D01*
X3898325Y5657773D01*
X3911787Y5662345D01*
X3920931Y5662345D01*
X3934647Y5657773D01*
X3943791Y5648629D01*
X3948363Y5634913D01*
X3948363Y5621197D01*
X3943791Y5607735D01*
X3939219Y5603163D01*
X3930075Y5598591D01*
X3852859Y5692317D02*
G01*
X3948363Y5728639D01*
X3852859Y5764961D02*
G01*
X3948363Y5728639D01*
X4106857Y5598589D02*
G01*
X4202361Y5598589D01*
X4106857Y5598589D02*
G01*
X4106857Y5639483D01*
X4111429Y5653199D01*
X4116001Y5657771D01*
X4124891Y5662343D01*
X4134035Y5662343D01*
X4143179Y5657771D01*
X4147751Y5653199D01*
X4152323Y5639483D01*
X4152323Y5598589D01*
X4152323Y5630339D02*
G01*
X4202361Y5662343D01*
X4120319Y5755815D02*
G01*
X4111429Y5746671D01*
X4106857Y5733209D01*
X4106857Y5714921D01*
X4111429Y5701205D01*
X4120319Y5692315D01*
X4129463Y5692315D01*
X4138607Y5696887D01*
X4143179Y5701205D01*
X4147751Y5710349D01*
X4156895Y5737781D01*
X4161213Y5746671D01*
X4165785Y5751243D01*
X4174929Y5755815D01*
X4188645Y5755815D01*
X4197789Y5746671D01*
X4202361Y5733209D01*
X4202361Y5714921D01*
X4197789Y5701205D01*
X4188645Y5692315D01*
X4106857Y5817791D02*
G01*
X4202361Y5817791D01*
X4106857Y5785787D02*
G01*
X4106857Y5849541D01*
X4383465Y5666663D02*
G01*
X4374321Y5662345D01*
X4365431Y5653201D01*
X4360859Y5644057D01*
X4360859Y5625769D01*
X4365431Y5616879D01*
X4374321Y5607735D01*
X4383465Y5603163D01*
X4397181Y5598591D01*
X4419787Y5598591D01*
X4433503Y5603163D01*
X4442647Y5607735D01*
X4451791Y5616879D01*
X4456363Y5625769D01*
X4456363Y5644057D01*
X4451791Y5653201D01*
X4442647Y5662345D01*
X4433503Y5666663D01*
X4419787Y5666663D01*
X4419787Y5644057D02*
G01*
X4419787Y5666663D01*
X4360859Y5696889D02*
G01*
X4456363Y5696889D01*
X4360859Y5696889D02*
G01*
X4456363Y5760389D01*
X4360859Y5760389D02*
G01*
X4456363Y5760389D01*
X4360859Y5790361D02*
G01*
X4456363Y5790361D01*
X4360859Y5790361D02*
G01*
X4360859Y5822111D01*
X4365431Y5835827D01*
X4374321Y5844971D01*
X4383465Y5849543D01*
X4397181Y5854115D01*
X4419787Y5854115D01*
X4433503Y5849543D01*
X4442647Y5844971D01*
X4451791Y5835827D01*
X4456363Y5822111D01*
X4456363Y5790361D01*
X4614862Y5598594D02*
G01*
X4710366Y5634916D01*
X4614862Y5671238D02*
G01*
X4710366Y5634916D01*
X4614862Y5701210D02*
G01*
X4710366Y5701210D01*
X4614862Y5731436D02*
G01*
X4710366Y5731436D01*
X4614862Y5731436D02*
G01*
X4710366Y5794936D01*
X4614862Y5794936D02*
G01*
X4710366Y5794936D01*
X1056858Y6587492D02*
G01*
X1152362Y6587492D01*
X1056858Y6587492D02*
G01*
X1056858Y6619242D01*
X1061430Y6632958D01*
X1070320Y6642102D01*
X1079464Y6646674D01*
X1093180Y6651246D01*
X1115786Y6651246D01*
X1129502Y6646674D01*
X1138646Y6642102D01*
X1147790Y6632958D01*
X1152362Y6619242D01*
X1152362Y6587492D01*
X1074892Y6681218D02*
G01*
X1070320Y6690108D01*
X1056858Y6703824D01*
X1152362Y6703824D01*
X1079464Y6738368D02*
G01*
X1074892Y6738368D01*
X1066002Y6742940D01*
X1061430Y6747512D01*
X1056858Y6756656D01*
X1056858Y6774690D01*
X1061430Y6783834D01*
X1066002Y6788406D01*
X1074892Y6792978D01*
X1084036Y6792978D01*
X1093180Y6788406D01*
X1106896Y6779262D01*
X1152362Y6733796D01*
X1152362Y6797550D01*
X1310855Y6628386D02*
G01*
X1406359Y6628386D01*
X1310855Y6628386D02*
G01*
X1310855Y6660136D01*
X1315427Y6673852D01*
X1324317Y6682996D01*
X1333461Y6687568D01*
X1347177Y6692140D01*
X1369783Y6692140D01*
X1383499Y6687568D01*
X1392643Y6682996D01*
X1401787Y6673852D01*
X1406359Y6660136D01*
X1406359Y6628386D01*
X1328889Y6722112D02*
G01*
X1324317Y6731002D01*
X1310855Y6744718D01*
X1406359Y6744718D01*
X1328889Y6774690D02*
G01*
X1324317Y6783834D01*
X1310855Y6797550D01*
X1406359Y6797550D01*
X1564858Y6587492D02*
G01*
X1660362Y6587492D01*
X1564858Y6587492D02*
G01*
X1564858Y6619242D01*
X1569430Y6632958D01*
X1578320Y6642102D01*
X1587464Y6646674D01*
X1601180Y6651246D01*
X1623786Y6651246D01*
X1637502Y6646674D01*
X1646646Y6642102D01*
X1655790Y6632958D01*
X1660362Y6619242D01*
X1660362Y6587492D01*
X1582892Y6681218D02*
G01*
X1578320Y6690108D01*
X1564858Y6703824D01*
X1660362Y6703824D01*
X1564858Y6761228D02*
G01*
X1569430Y6747512D01*
X1582892Y6738368D01*
X1605752Y6733796D01*
X1619214Y6733796D01*
X1642074Y6738368D01*
X1655790Y6747512D01*
X1660362Y6761228D01*
X1660362Y6770118D01*
X1655790Y6783834D01*
X1642074Y6792978D01*
X1619214Y6797550D01*
X1605752Y6797550D01*
X1582892Y6792978D01*
X1569430Y6783834D01*
X1564858Y6770118D01*
X1564858Y6761228D01*
X1818858Y6644896D02*
G01*
X1914362Y6644896D01*
X1818858Y6644896D02*
G01*
X1818858Y6676646D01*
X1823430Y6690362D01*
X1832320Y6699506D01*
X1841464Y6704078D01*
X1855180Y6708650D01*
X1877786Y6708650D01*
X1891502Y6704078D01*
X1900646Y6699506D01*
X1909790Y6690362D01*
X1914362Y6676646D01*
X1914362Y6644896D01*
X1850608Y6797550D02*
G01*
X1864324Y6792978D01*
X1873214Y6784088D01*
X1877786Y6770372D01*
X1877786Y6765800D01*
X1873214Y6752084D01*
X1864324Y6743194D01*
X1850608Y6738622D01*
X1846036Y6738622D01*
X1832320Y6743194D01*
X1823430Y6752084D01*
X1818858Y6765800D01*
X1818858Y6770372D01*
X1823430Y6784088D01*
X1832320Y6792978D01*
X1850608Y6797550D01*
X1873214Y6797550D01*
X1896074Y6792978D01*
X1909790Y6784088D01*
X1914362Y6770372D01*
X1914362Y6761228D01*
X1909790Y6747512D01*
X1900646Y6743194D01*
X2072855Y6640324D02*
G01*
X2168359Y6640324D01*
X2072855Y6640324D02*
G01*
X2072855Y6672074D01*
X2077427Y6685790D01*
X2086317Y6694934D01*
X2095461Y6699506D01*
X2109177Y6704078D01*
X2131783Y6704078D01*
X2145499Y6699506D01*
X2154643Y6694934D01*
X2163787Y6685790D01*
X2168359Y6672074D01*
X2168359Y6640324D01*
X2072855Y6756656D02*
G01*
X2077427Y6742940D01*
X2086317Y6738622D01*
X2095461Y6738622D01*
X2104605Y6742940D01*
X2109177Y6752084D01*
X2113749Y6770372D01*
X2118321Y6783834D01*
X2127211Y6792978D01*
X2136355Y6797550D01*
X2150071Y6797550D01*
X2159215Y6792978D01*
X2163787Y6788406D01*
X2168359Y6774944D01*
X2168359Y6756656D01*
X2163787Y6742940D01*
X2159215Y6738622D01*
X2150071Y6734050D01*
X2136355Y6734050D01*
X2127211Y6738622D01*
X2118321Y6747512D01*
X2113749Y6761228D01*
X2109177Y6779516D01*
X2104605Y6788406D01*
X2095461Y6792978D01*
X2086317Y6792978D01*
X2077427Y6788406D01*
X2072855Y6774944D01*
X2072855Y6756656D01*
X2326858Y6640324D02*
G01*
X2422362Y6640324D01*
X2326858Y6640324D02*
G01*
X2326858Y6672074D01*
X2331430Y6685790D01*
X2340320Y6694934D01*
X2349464Y6699506D01*
X2363180Y6704078D01*
X2385786Y6704078D01*
X2399502Y6699506D01*
X2408646Y6694934D01*
X2417790Y6685790D01*
X2422362Y6672074D01*
X2422362Y6640324D01*
X2326858Y6797550D02*
G01*
X2422362Y6752084D01*
X2326858Y6734050D02*
G01*
X2326858Y6797550D01*
X2580858Y6644896D02*
G01*
X2676362Y6644896D01*
X2580858Y6644896D02*
G01*
X2580858Y6676646D01*
X2585430Y6690362D01*
X2594320Y6699506D01*
X2603464Y6704078D01*
X2617180Y6708650D01*
X2639786Y6708650D01*
X2653502Y6704078D01*
X2662646Y6699506D01*
X2671790Y6690362D01*
X2676362Y6676646D01*
X2676362Y6644896D01*
X2594320Y6792978D02*
G01*
X2585430Y6788406D01*
X2580858Y6774944D01*
X2580858Y6765800D01*
X2585430Y6752084D01*
X2598892Y6743194D01*
X2621752Y6738622D01*
X2644358Y6738622D01*
X2662646Y6743194D01*
X2671790Y6752084D01*
X2676362Y6765800D01*
X2676362Y6770372D01*
X2671790Y6784088D01*
X2662646Y6792978D01*
X2648930Y6797550D01*
X2644358Y6797550D01*
X2630896Y6792978D01*
X2621752Y6784088D01*
X2617180Y6770372D01*
X2617180Y6765800D01*
X2621752Y6752084D01*
X2630896Y6743194D01*
X2644358Y6738622D01*
X2834855Y6640324D02*
G01*
X2930359Y6640324D01*
X2834855Y6640324D02*
G01*
X2834855Y6672074D01*
X2839427Y6685790D01*
X2848317Y6694934D01*
X2857461Y6699506D01*
X2871177Y6704078D01*
X2893783Y6704078D01*
X2907499Y6699506D01*
X2916643Y6694934D01*
X2925787Y6685790D01*
X2930359Y6672074D01*
X2930359Y6640324D01*
X2834855Y6788406D02*
G01*
X2834855Y6742940D01*
X2875749Y6738622D01*
X2871177Y6742940D01*
X2866605Y6756656D01*
X2866605Y6770372D01*
X2871177Y6783834D01*
X2880321Y6792978D01*
X2893783Y6797550D01*
X2902927Y6797550D01*
X2916643Y6792978D01*
X2925787Y6783834D01*
X2930359Y6770372D01*
X2930359Y6756656D01*
X2925787Y6742940D01*
X2921215Y6738622D01*
X2912071Y6734050D01*
X3088858Y6635752D02*
G01*
X3184362Y6635752D01*
X3088858Y6635752D02*
G01*
X3088858Y6667502D01*
X3093430Y6681218D01*
X3102320Y6690362D01*
X3111464Y6694934D01*
X3125180Y6699506D01*
X3147786Y6699506D01*
X3161502Y6694934D01*
X3170646Y6690362D01*
X3179790Y6681218D01*
X3184362Y6667502D01*
X3184362Y6635752D01*
X3088858Y6774944D02*
G01*
X3152358Y6729478D01*
X3152358Y6797550D01*
X3088858Y6774944D02*
G01*
X3184362Y6774944D01*
X3342858Y6640324D02*
G01*
X3438362Y6640324D01*
X3342858Y6640324D02*
G01*
X3342858Y6672074D01*
X3347430Y6685790D01*
X3356320Y6694934D01*
X3365464Y6699506D01*
X3379180Y6704078D01*
X3401786Y6704078D01*
X3415502Y6699506D01*
X3424646Y6694934D01*
X3433790Y6685790D01*
X3438362Y6672074D01*
X3438362Y6640324D01*
X3342858Y6742940D02*
G01*
X3342858Y6792978D01*
X3379180Y6765800D01*
X3379180Y6779516D01*
X3383752Y6788406D01*
X3388324Y6792978D01*
X3401786Y6797550D01*
X3410930Y6797550D01*
X3424646Y6792978D01*
X3433790Y6783834D01*
X3438362Y6770372D01*
X3438362Y6756656D01*
X3433790Y6742940D01*
X3429218Y6738622D01*
X3420074Y6734050D01*
X3596855Y6640324D02*
G01*
X3692359Y6640324D01*
X3596855Y6640324D02*
G01*
X3596855Y6672074D01*
X3601427Y6685790D01*
X3610317Y6694934D01*
X3619461Y6699506D01*
X3633177Y6704078D01*
X3655783Y6704078D01*
X3669499Y6699506D01*
X3678643Y6694934D01*
X3687787Y6685790D01*
X3692359Y6672074D01*
X3692359Y6640324D01*
X3619461Y6738622D02*
G01*
X3614889Y6738622D01*
X3605999Y6742940D01*
X3601427Y6747512D01*
X3596855Y6756656D01*
X3596855Y6774944D01*
X3601427Y6783834D01*
X3605999Y6788406D01*
X3614889Y6792978D01*
X3624033Y6792978D01*
X3633177Y6788406D01*
X3646893Y6779516D01*
X3692359Y6734050D01*
X3692359Y6797550D01*
X3873464Y6610098D02*
G01*
X3864320Y6605780D01*
X3855430Y6596636D01*
X3850858Y6587492D01*
X3850858Y6569204D01*
X3855430Y6560314D01*
X3864320Y6551170D01*
X3873464Y6546598D01*
X3887180Y6542026D01*
X3909786Y6542026D01*
X3923502Y6546598D01*
X3932646Y6551170D01*
X3941790Y6560314D01*
X3946362Y6569204D01*
X3946362Y6587492D01*
X3941790Y6596636D01*
X3932646Y6605780D01*
X3923502Y6610098D01*
X3909786Y6610098D01*
X3909786Y6587492D02*
G01*
X3909786Y6610098D01*
X3850858Y6640324D02*
G01*
X3946362Y6640324D01*
X3850858Y6640324D02*
G01*
X3946362Y6703824D01*
X3850858Y6703824D02*
G01*
X3946362Y6703824D01*
X3850858Y6733796D02*
G01*
X3946362Y6733796D01*
X3850858Y6733796D02*
G01*
X3850858Y6765546D01*
X3855430Y6779262D01*
X3864320Y6788406D01*
X3873464Y6792978D01*
X3887180Y6797550D01*
X3909786Y6797550D01*
X3923502Y6792978D01*
X3932646Y6788406D01*
X3941790Y6779262D01*
X3946362Y6765546D01*
X3946362Y6733796D01*
X4104858Y6546598D02*
G01*
X4200362Y6546598D01*
X4104858Y6546598D02*
G01*
X4104858Y6587492D01*
X4109430Y6601208D01*
X4114002Y6605780D01*
X4122892Y6610352D01*
X4132036Y6610352D01*
X4141180Y6605780D01*
X4145752Y6601208D01*
X4150324Y6587492D01*
X4150324Y6546598D01*
X4150324Y6578348D02*
G01*
X4200362Y6610352D01*
X4118320Y6703824D02*
G01*
X4109430Y6694680D01*
X4104858Y6681218D01*
X4104858Y6662930D01*
X4109430Y6649214D01*
X4118320Y6640324D01*
X4127464Y6640324D01*
X4136608Y6644896D01*
X4141180Y6649214D01*
X4145752Y6658358D01*
X4154896Y6685790D01*
X4159214Y6694680D01*
X4163786Y6699252D01*
X4172930Y6703824D01*
X4186646Y6703824D01*
X4195790Y6694680D01*
X4200362Y6681218D01*
X4200362Y6662930D01*
X4195790Y6649214D01*
X4186646Y6640324D01*
X4104858Y6765800D02*
G01*
X4200362Y6765800D01*
X4104858Y6733796D02*
G01*
X4104858Y6797550D01*
X4358855Y6546598D02*
G01*
X4454359Y6546598D01*
X4358855Y6546598D02*
G01*
X4358855Y6587492D01*
X4363427Y6601208D01*
X4367999Y6605780D01*
X4376889Y6610352D01*
X4386033Y6610352D01*
X4395177Y6605780D01*
X4399749Y6601208D01*
X4404321Y6587492D01*
X4404321Y6546598D01*
X4404321Y6578348D02*
G01*
X4454359Y6610352D01*
X4358855Y6640324D02*
G01*
X4454359Y6703824D01*
X4358855Y6703824D02*
G01*
X4454359Y6640324D01*
X4358855Y6733796D02*
G01*
X4454359Y6733796D01*
X4358855Y6733796D02*
G01*
X4358855Y6765800D01*
X4363427Y6779262D01*
X4372317Y6788406D01*
X4381461Y6792978D01*
X4395177Y6797550D01*
X4417783Y6797550D01*
X4431499Y6792978D01*
X4440643Y6788406D01*
X4449787Y6779262D01*
X4454359Y6765800D01*
X4454359Y6733796D01*
X4612858Y6578348D02*
G01*
X4708362Y6578348D01*
X4612858Y6546598D02*
G01*
X4612858Y6610352D01*
X4612858Y6640324D02*
G01*
X4708362Y6703824D01*
X4612858Y6703824D02*
G01*
X4708362Y6640324D01*
X4612858Y6733796D02*
G01*
X4708362Y6733796D01*
X4612858Y6733796D02*
G01*
X4612858Y6765800D01*
X4617430Y6779262D01*
X4626320Y6788406D01*
X4635464Y6792978D01*
X4649180Y6797550D01*
X4671786Y6797550D01*
X4685502Y6792978D01*
X4694646Y6788406D01*
X4703790Y6779262D01*
X4708362Y6765800D01*
X4708362Y6733796D01*
G36*
X5998413Y6210300D02*
G01*
X6028385Y6100318D01*
X6068415Y6030315D01*
X6148425Y5980277D01*
X6238392Y5960313D01*
X6338417Y5980277D01*
X6418376Y6030315D01*
X6478422Y6110325D01*
X6498386Y6210300D01*
G37*
D12*
X5890386Y6123000D02*
G01*
X5350408Y6123000D01*
X5350408Y6333007D02*
G01*
X5890386Y6333007D01*
X5890386Y6123000D02*
G01*
X5890386Y6333007D01*
X5350408Y6123000D02*
G01*
X5350408Y6333007D01*
X6498386Y6210300D02*
G01*
X5998387Y6210300D01*
X6478397Y6120307D02*
G01*
X6388404Y6210300D01*
X6438391Y6060287D02*
G01*
X6288404Y6210300D01*
X6378397Y6010300D02*
G01*
X6178397Y6210300D01*
X6308394Y5970295D02*
G01*
X6068390Y6210300D01*
X6188405Y5970295D02*
G01*
X6008395Y6150305D01*
X6388404Y6370294D02*
G01*
X6388404Y6270294D01*
X6438391Y6320307D02*
G01*
X6338392Y6320307D01*
X5486400Y6944281D02*
G01*
X6502400Y6944281D01*
X5486400Y7061200D02*
G01*
X6502400Y7061200D01*
X6502400Y6591300D01*
X5486400Y6591300D01*
X5486400Y7061200D01*
X1511401Y8572500D02*
G01*
X1435201Y8572500D01*
X1435201Y8712200D01*
X1003401Y8712200D01*
X1003401Y7645400D01*
X1435201Y7645400D01*
X1435201Y7747000D01*
X1511401Y7747000D01*
X1524101Y7747000D01*
X1524101Y7912100D02*
G01*
X1435201Y7912100D01*
X1435201Y8420100D01*
X1524101Y8420100D01*
X927201Y7543800D02*
G01*
X927201Y8788400D01*
X1524101Y8788400D01*
X1524101Y7543800D01*
X927201Y7543800D01*
X2273401Y8572500D02*
G01*
X2197201Y8572500D01*
X2197201Y8712200D01*
X1765401Y8712200D01*
X1765401Y7645400D01*
X2197201Y7645400D01*
X2197201Y7747000D01*
X2273401Y7747000D01*
X2286101Y7747000D01*
X2286101Y7912100D02*
G01*
X2197201Y7912100D01*
X2197201Y8420100D01*
X2286101Y8420100D01*
X1689201Y7543800D02*
G01*
X1689201Y8788400D01*
X2286101Y8788400D01*
X2286101Y7543800D01*
X1689201Y7543800D01*
X5016601Y7442200D02*
G01*
X5016601Y7518400D01*
X5156301Y7518400D01*
X5156301Y7950200D01*
X4089501Y7950200D01*
X4089501Y7518400D01*
X4191101Y7518400D01*
X4191101Y7442200D01*
X4191101Y7429500D01*
X4356201Y7429500D02*
G01*
X4356201Y7518400D01*
X4864201Y7518400D01*
X4864201Y7429500D01*
X3987901Y8026400D02*
G01*
X5232501Y8026400D01*
X5232501Y7429500D01*
X3987901Y7429500D01*
X3987901Y8026400D01*
X5016601Y8204200D02*
G01*
X5016601Y8280400D01*
X5156301Y8280400D01*
X5156301Y8712200D01*
X4089501Y8712200D01*
X4089501Y8280400D01*
X4191101Y8280400D01*
X4191101Y8204200D01*
X4191101Y8191500D01*
X4356201Y8191500D02*
G01*
X4356201Y8280400D01*
X4864201Y8280400D01*
X4864201Y8191500D01*
X3987901Y8788400D02*
G01*
X5232501Y8788400D01*
X5232501Y8191500D01*
X3987901Y8191500D01*
X3987901Y8788400D01*
X6350063Y7429500D02*
G01*
X6350063Y7518400D01*
X6438963Y7518400D01*
X6438963Y7950200D01*
X5562663Y7950200D01*
X5562663Y7518400D01*
X5638863Y7518400D01*
X5638863Y7416800D01*
X5867463Y7416800D02*
G01*
X5867463Y7518400D01*
X6159563Y7518400D01*
X6159563Y7416800D01*
X5497169Y8013700D02*
G01*
X6502476Y8013700D01*
X6502476Y7416800D01*
X5497169Y7416800D01*
X5497169Y8013700D01*
X6350063Y8204200D02*
G01*
X6350063Y8293100D01*
X6438963Y8293100D01*
X6438963Y8724900D01*
X5562663Y8724900D01*
X5562663Y8293100D01*
X5638863Y8293100D01*
X5638863Y8191500D01*
X5867463Y8191500D02*
G01*
X5867463Y8293100D01*
X6159563Y8293100D01*
X6159563Y8191500D01*
X5497169Y8788400D02*
G01*
X6502476Y8788400D01*
X6502476Y8191500D01*
X5497169Y8191500D01*
X5497169Y8788400D01*
X5804781Y5489196D02*
G01*
X6043896Y5489196D01*
X5804781Y5489196D02*
G01*
X5573897Y5489196D01*
X5563903Y5499199D01*
X5804458Y5839195D02*
G01*
X6038595Y5839195D01*
X6043896Y5833894D01*
X5804458Y5839195D02*
G01*
X5563903Y5839195D01*
X5563903Y5914199D02*
G01*
X6043896Y5914199D01*
X6043896Y5414200D01*
X5648901Y5414200D01*
X5563903Y5499199D01*
X5563903Y5914199D01*
X2793994Y8369300D02*
G01*
X2717794Y8369300D01*
X3454394Y8369300D02*
G01*
X3530594Y8369300D01*
X2806687Y8483600D02*
G01*
X3454387Y8483600D01*
X3454387Y8255000D01*
X2806687Y8255000D01*
X2806687Y8483600D01*
X2793994Y8102600D02*
G01*
X2717794Y8102600D01*
X3454394Y8102600D02*
G01*
X3530594Y8102600D01*
X2806687Y8216900D02*
G01*
X3454387Y8216900D01*
X3454387Y7988300D01*
X2806687Y7988300D01*
X2806687Y8216900D01*
X2793994Y7835900D02*
G01*
X2717794Y7835900D01*
X3454394Y7835900D02*
G01*
X3530594Y7835900D01*
X2806687Y7950200D02*
G01*
X3454387Y7950200D01*
X3454387Y7721600D01*
X2806687Y7721600D01*
X2806687Y7950200D01*
D13*
X3200359Y5308660D02*
G01*
X3263859Y5372160D01*
X3327359Y5308660D01*
X1041374Y5562648D02*
G01*
X977874Y5499148D01*
X977874Y5372148D01*
X1041374Y5308648D01*
X1295374Y5562648D02*
G01*
X1231874Y5499148D01*
X1168374Y5562648D01*
X1549374Y5562648D02*
G01*
X1485874Y5499148D01*
X1422374Y5562648D01*
X1803328Y5562648D02*
G01*
X1739851Y5499148D01*
X1676351Y5562648D01*
X2057323Y5562648D02*
G01*
X1993823Y5499148D01*
X1930323Y5562648D01*
X2311323Y5562648D02*
G01*
X2247823Y5499148D01*
X2184323Y5562648D01*
X2565323Y5562648D02*
G01*
X2501823Y5499148D01*
X2438323Y5562648D01*
X2819323Y5562648D02*
G01*
X2755823Y5499148D01*
X2692323Y5562648D01*
X3073323Y5562648D02*
G01*
X3009823Y5499148D01*
X2946323Y5562648D01*
X3327323Y5562648D02*
G01*
X3263823Y5499148D01*
X3200323Y5562648D01*
X3581323Y5562648D02*
G01*
X3517823Y5499148D01*
X3454323Y5562648D01*
X3835323Y5562648D02*
G01*
X3771823Y5499148D01*
X3708323Y5562648D01*
X4089351Y5562648D02*
G01*
X4025828Y5499148D01*
X3962323Y5562648D01*
X4343359Y5562648D02*
G01*
X4279859Y5499148D01*
X4216359Y5562648D01*
X4597359Y5562648D02*
G01*
X4533859Y5499148D01*
X4470359Y5562648D01*
X4724359Y5308648D02*
G01*
X4787859Y5372148D01*
X4787859Y5499148D01*
X4724359Y5562648D01*
X4470359Y5308648D02*
G01*
X4533859Y5372148D01*
X4597359Y5308648D01*
X4216359Y5308648D02*
G01*
X4279859Y5372148D01*
X4343359Y5308648D01*
X3962323Y5308648D02*
G01*
X4025828Y5372148D01*
X4089351Y5308648D01*
X1676351Y5308648D02*
G01*
X1739851Y5372148D01*
X1803328Y5308648D01*
X1168374Y5308648D02*
G01*
X1231874Y5372148D01*
X1295374Y5308648D01*
X1422374Y5308648D02*
G01*
X1485874Y5372148D01*
X1549374Y5308648D01*
X1930323Y5308648D02*
G01*
X1993823Y5372148D01*
X2057323Y5308648D01*
X2184323Y5308648D02*
G01*
X2247823Y5372148D01*
X2311323Y5308648D01*
X2438323Y5308648D02*
G01*
X2501823Y5372148D01*
X2565323Y5308648D01*
X2692323Y5308648D02*
G01*
X2755823Y5372148D01*
X2819323Y5308648D01*
X2946323Y5308648D02*
G01*
X3009823Y5372148D01*
X3073323Y5308648D01*
X3454323Y5308648D02*
G01*
X3517823Y5372148D01*
X3581323Y5308648D01*
X3708323Y5308648D02*
G01*
X3771823Y5372148D01*
X3835323Y5308648D01*
X3962323Y5308648D02*
G01*
X4025828Y5372148D01*
X4089351Y5308648D01*
X4216359Y5308648D01*
X4279859Y5372148D01*
X4343359Y5308648D01*
X4470359Y5308648D01*
X4533859Y5372148D01*
X4597359Y5308648D01*
X4724359Y5308648D01*
X4787859Y5372148D01*
X4787859Y5499148D01*
X4724359Y5562648D01*
X4597359Y5562648D01*
X4533859Y5499148D01*
X4470359Y5562648D01*
X4343359Y5562648D01*
X4279859Y5499148D01*
X4216359Y5562648D01*
X4089351Y5562648D01*
X4025828Y5499148D01*
X3962323Y5562648D01*
X3835323Y5562648D01*
X3771823Y5499148D01*
X3708323Y5562648D01*
X3581323Y5562648D01*
X3517823Y5499148D01*
X3454323Y5562648D01*
X3327323Y5562648D01*
X3263823Y5499148D01*
X3200323Y5562648D01*
X3073323Y5562648D01*
X3009823Y5499148D01*
X2946323Y5562648D01*
X2819323Y5562648D01*
X2755823Y5499148D01*
X2692323Y5562648D01*
X2565323Y5562648D01*
X2501823Y5499148D01*
X2438323Y5562648D01*
X2311323Y5562648D01*
X2247823Y5499148D01*
X2184323Y5562648D01*
X2057323Y5562648D01*
X1993823Y5499148D01*
X1930323Y5562648D01*
X1803328Y5562648D01*
X1739851Y5499148D01*
X1676351Y5562648D01*
X1549374Y5562648D01*
X1485874Y5499148D01*
X1422374Y5562648D01*
X1295374Y5562648D01*
X1231874Y5499148D01*
X1168374Y5562648D01*
X1041374Y5562648D01*
X977874Y5499148D01*
X977874Y5372148D01*
X1041374Y5308648D01*
X2565425Y7086556D02*
G01*
X2501925Y7023056D01*
X2438425Y7086556D01*
X1803466Y7086566D02*
G01*
X1739963Y7023066D01*
X1676438Y7086566D01*
X1549425Y7086566D01*
X1485925Y7023066D01*
X1422425Y7086566D01*
X1295425Y7086566D01*
X1231925Y7023066D01*
X1168425Y7086566D01*
X1041425Y7086566D01*
X977925Y7023066D01*
X977925Y6896066D01*
X1041425Y6832566D01*
X1168425Y6832566D01*
X1231925Y6896066D01*
X1295425Y6832566D01*
X1422425Y6832566D01*
X1485925Y6896066D01*
X1549425Y6832566D01*
X1676438Y6832566D01*
X1739963Y6896066D01*
X1803466Y6832566D01*
X1930466Y6832566D01*
X1993966Y6896066D01*
X2057466Y6832566D01*
X2184466Y6832566D01*
X2247966Y6896066D01*
X2311466Y6832566D01*
X2438466Y6832566D01*
X2501966Y6896066D01*
X2565466Y6832566D01*
X2692466Y6832566D01*
X2755966Y6896066D01*
X2819466Y6832566D01*
X2946466Y6832566D01*
X3009966Y6896066D01*
X3073466Y6832566D01*
X3200466Y6832566D01*
X3263966Y6896066D01*
X3327466Y6832566D01*
X3454466Y6832566D01*
X3517966Y6896066D01*
X3581466Y6832566D01*
X3708466Y6832566D01*
X3771966Y6896066D01*
X3835466Y6832566D01*
X3962460Y6832566D01*
X4025938Y6896066D01*
X4089438Y6832566D01*
X4216415Y6832566D01*
X4279915Y6896066D01*
X4343415Y6832566D01*
X4470415Y6832566D01*
X4533915Y6896066D01*
X4597415Y6832566D01*
X4724415Y6832566D01*
X4787915Y6896066D01*
X4787915Y7023066D01*
X4724415Y7086566D01*
X4089438Y7086566D02*
G01*
X4025938Y7023066D01*
X3962460Y7086566D01*
X4597415Y7086566D02*
G01*
X4533915Y7023066D01*
X4470415Y7086566D01*
X4343415Y7086566D02*
G01*
X4279915Y7023066D01*
X4216415Y7086566D01*
X3835466Y7086566D02*
G01*
X3771966Y7023066D01*
X3708466Y7086566D01*
X3581466Y7086566D02*
G01*
X3517966Y7023066D01*
X3454466Y7086566D01*
X3327466Y7086566D02*
G01*
X3263966Y7023066D01*
X3200466Y7086566D01*
X3073466Y7086566D02*
G01*
X3009966Y7023066D01*
X2946466Y7086566D01*
X2819466Y7086566D02*
G01*
X2755966Y7023066D01*
X2692466Y7086566D01*
X2311466Y7086566D02*
G01*
X2247966Y7023066D01*
X2184466Y7086566D01*
X2057466Y7086566D02*
G01*
X1993966Y7023066D01*
X1930466Y7086566D01*
X1112520Y6477000D02*
G01*
X1112520Y6451610D01*
X723900Y6477000D02*
G01*
X571500Y6477000D01*
X571500Y5918200D01*
X1112520Y5918200D01*
X1112520Y5939104D01*
X723900Y6477000D02*
G01*
X1112520Y6477000D01*
X1112520Y6451610D02*
G01*
X1112520Y5943600D01*
D10*
X716279Y7094217D02*
G01*
X5049512Y7094217D01*
X5049512Y5300979D01*
X716279Y5300979D01*
X716279Y7094217D01*
D12*
G75*
G01
X6498412Y6210300D02*
G03X6498412Y6210300I-250012J0D01*
D14*
G75*
G01
X5569890Y6515100D02*
G03X5569890Y6515100I-19990J0D01*
M02*
